HIERARCHY
ROOT Hips
{
 OFFSET 0.000000 0.000000 0.000000
 CHANNELS 6 Xposition Yposition Zposition Yrotation Xrotation Zrotation
 JOINT Chest
 {
  OFFSET 0.000000 13.173100 -0.061900
  CHANNELS 3 Yrotation Xrotation Zrotation
  JOINT Chest2
  {
   OFFSET 0.000000 8.040800 0.126200
   CHANNELS 3 Yrotation Xrotation Zrotation
   JOINT Chest3
   {
    OFFSET 0.000000 7.994400 0.000000
    CHANNELS 3 Yrotation Xrotation Zrotation
    JOINT Chest4
    {
     OFFSET 0.000000 7.986200 0.000000
     CHANNELS 3 Yrotation Xrotation Zrotation
     JOINT Neck
     {
      OFFSET 0.000000 12.259400 0.000000
      CHANNELS 3 Yrotation Xrotation Zrotation
      JOINT Head
      {
       OFFSET 0.000000 7.518700 0.267100
       CHANNELS 3 Yrotation Xrotation Zrotation
       End Site
       {
        OFFSET 0.000000 13.617700 0.141000
       }
      }
     }
     JOINT RightCollar
     {
      OFFSET -2.983800 8.314300 0.000000
      CHANNELS 3 Yrotation Xrotation Zrotation
      JOINT RightShoulder
      {
       OFFSET -16.133400 0.000000 0.000000
       CHANNELS 3 Yrotation Xrotation Zrotation
       JOINT RightElbow
       {
        OFFSET 0.000000 -29.822100 0.000000
        CHANNELS 3 Yrotation Xrotation Zrotation
        JOINT RightWrist
        {
         OFFSET 0.000000 -24.437700 0.010900
         CHANNELS 3 Yrotation Xrotation Zrotation
         End Site
         {
          OFFSET 0.000000 -18.312300 0.000000
         }
        }
       }
      }
     }
     JOINT LeftCollar
     {
      OFFSET 2.983800 8.314300 0.000000
      CHANNELS 3 Yrotation Xrotation Zrotation
      JOINT LeftShoulder
      {
       OFFSET 16.133400 0.000000 0.000000
       CHANNELS 3 Yrotation Xrotation Zrotation
       JOINT LeftElbow
       {
        OFFSET 0.000000 -29.822100 0.000000
        CHANNELS 3 Yrotation Xrotation Zrotation
        JOINT LeftWrist
        {
         OFFSET 0.000000 -24.437700 0.010900
         CHANNELS 3 Yrotation Xrotation Zrotation
         End Site
         {
          OFFSET 0.000000 -18.312300 0.000000
         }
        }
       }
      }
     }
    }
   }
  }
 }
 JOINT RightHip
 {
  OFFSET -11.206700 0.306200 0.030900
  CHANNELS 3 Yrotation Xrotation Zrotation
  JOINT RightKnee
  {
   OFFSET 0.000000 -57.334900 0.009400
   CHANNELS 3 Yrotation Xrotation Zrotation
   JOINT RightAnkle
   {
    OFFSET 0.000000 -43.376200 0.036600
    CHANNELS 3 Yrotation Xrotation Zrotation
    JOINT RightToe
    {
     OFFSET 0.000000 -10.035500 18.363100
     CHANNELS 3 Yrotation Xrotation Zrotation
     End Site
     {
      OFFSET 0.000000 -1.618500 7.239000
     }
    }
   }
  }
 }
 JOINT LeftHip
 {
  OFFSET 11.206700 0.306200 0.030900
  CHANNELS 3 Yrotation Xrotation Zrotation
  JOINT LeftKnee
  {
   OFFSET 0.000000 -57.334900 0.009400
   CHANNELS 3 Yrotation Xrotation Zrotation
   JOINT LeftAnkle
   {
    OFFSET 0.000000 -43.376200 0.036600
    CHANNELS 3 Yrotation Xrotation Zrotation
    JOINT LeftToe
    {
     OFFSET 0.000000 -10.035500 18.363100
     CHANNELS 3 Yrotation Xrotation Zrotation
     End Site
     {
      OFFSET 0.000000 -1.618500 7.239000
     }
    }
   }
  }
 }
}
MOTION
Frames: 5
Frame Time: 0.008333
-93.865000 65.132654 90.071745 173.876758 -36.879875 -3.518969 2.872570 20.057622 1.574168 0.322707 2.563126 0.275602 0.535516 4.197950 0.459496 2.492430 17.294779 2.208004 1.900159 15.825875 -1.093869 3.947273 -6.383687 -2.704263 -4.501063 1.032417 -1.760678 -4.564190 -2.039356 5.109700 21.453523 -86.362010 -16.090946 -1.103067 -10.136521 -1.903554 -2.643023 0.727397 0.095613 9.516119 -0.636388 1.303257 154.313475 -83.231028 -162.731949 -6.410392 -5.769707 6.499176 -3.785739 -43.855556 3.021572 -110.565901 86.005865 -105.819660 -0.211157 -9.715874 -3.219671 0.141826 -0.446124 0.124004 -1.774871 -40.798742 5.123288 75.189610 83.266963 65.057425 -6.615460 -12.667204 8.998839 0.522645 1.265314 0.347151
-93.862836 65.126199 90.070683 173.888413 -36.905080 -3.532262 2.879295 20.079263 1.603212 0.318644 2.559937 0.275318 0.528846 4.193067 0.458862 2.465758 17.288186 2.203798 1.924211 15.813835 -1.094167 3.967795 -6.359792 -2.726972 -4.443196 1.021072 -1.797850 -4.571309 -2.073861 5.082177 21.923475 -86.389347 -16.533301 -1.072545 -10.057600 -1.968127 -2.658861 0.818191 0.068379 9.537667 -0.755560 1.309418 155.317864 -83.185403 -163.709500 -6.486078 -5.510407 6.148909 -3.861979 -43.813159 3.067005 -110.234037 85.986990 -105.535701 -0.183499 -9.690180 -3.213327 0.135271 -0.472886 0.116428 -1.759664 -40.767624 5.133123 75.121473 83.241590 64.982720 -6.606810 -12.629285 8.996498 0.499675 1.229693 0.348422
-93.872020 65.114736 90.075511 173.924712 -36.897458 -3.517043 2.842108 20.068161 1.583307 0.314210 2.562673 0.266238 0.525625 4.190375 0.458514 2.443105 17.270738 2.208230 1.939206 15.829467 -1.107358 3.976789 -6.352017 -2.734779 -4.396776 1.020136 -1.835243 -4.575112 -2.109734 5.065613 22.219421 -86.428720 -16.795380 -1.055411 -9.958394 -2.006117 -2.685971 0.930016 0.036099 9.575460 -0.893459 1.314956 156.585434 -83.138293 -164.930336 -6.587926 -5.168174 5.684895 -3.878756 -43.812676 3.032311 -109.951118 85.953378 -105.279541 -0.172215 -9.674913 -3.207113 0.135880 -0.494085 0.114862 -1.743007 -40.770530 5.088426 74.993817 83.226498 64.841801 -6.622674 -12.600688 9.015990 0.509318 1.213524 0.335222
-93.883552 65.103574 90.080071 173.967839 -36.896704 -3.494587 2.794129 20.061427 1.551393 0.310575 2.567492 0.256809 0.522669 4.187463 0.458340 2.422041 17.249946 2.210710 1.953979 15.848064 -1.117146 4.009683 -6.357886 -2.749760 -4.355281 1.024411 -1.878977 -4.574328 -2.151918 5.066641 22.340126 -86.473058 -16.892613 -1.048539 -9.839492 -2.027564 -2.726505 1.061039 -0.002144 9.629580 -1.022532 1.320943 158.493560 -83.062255 -166.753883 -6.743389 -4.698352 5.096149 -3.879318 -43.808045 2.979894 -109.751696 85.920322 -105.109836 -0.163830 -9.663578 -3.195209 0.128638 -0.517231 0.107345 -1.721438 -40.764960 5.029403 74.853641 83.208173 64.685291 -6.644708 -12.573529 9.029673 0.506124 1.200679 0.331148
-93.889315 65.091199 90.087343 174.005518 -36.892140 -3.491396 2.756355 20.054003 1.533593 0.308309 2.559493 0.265592 0.517492 4.182174 0.457216 2.403081 17.235120 2.199415 1.967973 15.856747 -1.115223 4.060257 -6.386206 -2.772545 -4.297621 0.990428 -1.949491 -4.583235 -2.152890 5.111660 22.538530 -86.522567 -17.082072 -1.036155 -9.658984 -1.979169 -2.775275 1.215742 -0.039730 9.689489 -1.171609 1.328129 161.219739 -82.966290 -169.330316 -6.980995 -4.021595 4.373598 -3.839002 -43.816401 2.939503 -109.590835 85.893327 -104.935166 -0.216266 -9.626263 -3.194423 0.178230 -0.554215 0.124453 -1.687470 -40.764281 5.014973 74.636035 83.224520 64.460398 -6.707914 -12.549861 9.033721 0.536637 1.195520 0.358255
